# xmcd
#
# Track frame offsets:
#	150
#	30321
#	104717
#	157573
#	224935
#	251850
#	292630
#	316586
#
# Disc length: 4524 seconds
#
# Revision: 1
# Processed by: cddbd v1.5.2PL0 Copyright (c) Steve Scherf et al.
# Submitted via: audiograbber 1.83.01
#
DISCID=6611aa08
DTITLE=Grateful Dead - 95-07-08 Soldier Field, Chicago IL
DYEAR=1900
DGENRE=
TTITLE0=Saint Of Circumstance
TTITLE1=Terrapin Station
TTITLE2=Drums
TTITLE3=Space
TTITLE4=The Other One
TTITLE5=Visions Of Johanna
TTITLE6=One More Saturday Night
TTITLE7=US Blues
EXTD=
EXTT0=
EXTT1=
EXTT2=
EXTT3=
EXTT4=
EXTT5=
EXTT6=
EXTT7=
PLAYORDER=
